<svg xmlns="http://www.w3.org/2000/svg" xmlns:xlink="http://www.w3.org/1999/xlink" contentStyleType="text/css" data-diagram-type="SEQUENCE" height="298px" preserveAspectRatio="none" style="width:706px;height:298px;background:#FFFFFF;" version="1.1" viewBox="0 0 706 298" width="706px" zoomAndPan="magnify"><defs/><g><g><title>User</title><rect fill="#000000" fill-opacity="0.00000" height="136.5313" width="8" x="19.9551" y="81.2969"/><line style="stroke:#181818;stroke-width:0.5;stroke-dasharray:5.0,5.0;" x1="23" x2="23" y1="81.2969" y2="217.8281"/></g><g><title>DMButtonAction</title><rect fill="#000000" fill-opacity="0.00000" height="136.5313" width="8" x="134.8472" y="81.2969"/><line style="stroke:#181818;stroke-width:0.5;stroke-dasharray:5.0,5.0;" x1="137.9243" x2="137.9243" y1="81.2969" y2="217.8281"/></g><g><title>DMAction.fallbackTo</title><rect fill="#000000" fill-opacity="0.00000" height="136.5313" width="8" x="287.3081" y="81.2969"/><line style="stroke:#181818;stroke-width:0.5;stroke-dasharray:5.0,5.0;" x1="290.77" x2="290.77" y1="81.2969" y2="217.8281"/></g><g><title>Fallback Action</title><rect fill="#000000" fill-opacity="0.00000" height="136.5313" width="8" x="435.958" y="81.2969"/><line style="stroke:#181818;stroke-width:0.5;stroke-dasharray:5.0,5.0;" x1="439.8462" x2="439.8462" y1="81.2969" y2="217.8281"/></g><g><title>Result&lt;Copyable, Error&gt;</title><rect fill="#000000" fill-opacity="0.00000" height="136.5313" width="8" x="601.2739" y="81.2969"/><line style="stroke:#181818;stroke-width:0.5;stroke-dasharray:5.0,5.0;" x1="605.0698" x2="605.0698" y1="81.2969" y2="217.8281"/></g><g class="participant participant-head" data-participant="User"><text fill="#000000" font-family="sans-serif" font-size="14" lengthAdjust="spacing" textLength="31.9102" x="5" y="77.9951">User</text><ellipse cx="23.9551" cy="13.5" fill="#E2E2F0" rx="8" ry="8" style="stroke:#181818;stroke-width:0.5;"/><path d="M23.9551,21.5 L23.9551,48.5 M10.9551,29.5 L36.9551,29.5 M23.9551,48.5 L10.9551,63.5 M23.9551,48.5 L36.9551,63.5 " fill="none" style="stroke:#181818;stroke-width:0.5;"/></g><g class="participant participant-tail" data-participant="User"><text fill="#000000" font-family="sans-serif" font-size="14" lengthAdjust="spacing" textLength="31.9102" x="5" y="229.8232">User</text><ellipse cx="23.9551" cy="241.625" fill="#E2E2F0" rx="8" ry="8" style="stroke:#181818;stroke-width:0.5;"/><path d="M23.9551,249.625 L23.9551,276.625 M10.9551,257.625 L36.9551,257.625 M23.9551,276.625 L10.9551,291.625 M23.9551,276.625 L36.9551,291.625 " fill="none" style="stroke:#181818;stroke-width:0.5;"/></g><g class="participant participant-head" data-participant="ButtonAction"><rect fill="#E2E2F0" height="30.2969" rx="2.5" ry="2.5" style="stroke:#181818;stroke-width:0.5;" width="127.8457" x="74.9243" y="50"/><text fill="#000000" font-family="sans-serif" font-size="14" lengthAdjust="spacing" textLength="113.8457" x="81.9243" y="69.9951">DMButtonAction</text></g><g class="participant participant-tail" data-participant="ButtonAction"><rect fill="#E2E2F0" height="30.2969" rx="2.5" ry="2.5" style="stroke:#181818;stroke-width:0.5;" width="127.8457" x="74.9243" y="216.8281"/><text fill="#000000" font-family="sans-serif" font-size="14" lengthAdjust="spacing" textLength="113.8457" x="81.9243" y="236.8232">DMButtonAction</text></g><g class="participant participant-head" data-participant="FallbackMechanism"><rect fill="#E2E2F0" height="30.2969" rx="2.5" ry="2.5" style="stroke:#181818;stroke-width:0.5;" width="157.0762" x="212.77" y="50"/><text fill="#000000" font-family="sans-serif" font-size="14" lengthAdjust="spacing" textLength="143.0762" x="219.77" y="69.9951">DMAction.fallbackTo</text></g><g class="participant participant-tail" data-participant="FallbackMechanism"><rect fill="#E2E2F0" height="30.2969" rx="2.5" ry="2.5" style="stroke:#181818;stroke-width:0.5;" width="157.0762" x="212.77" y="216.8281"/><text fill="#000000" font-family="sans-serif" font-size="14" lengthAdjust="spacing" textLength="143.0762" x="219.77" y="236.8232">DMAction.fallbackTo</text></g><g class="participant participant-head" data-participant="FallbackAction"><rect fill="#E2E2F0" height="30.2969" rx="2.5" ry="2.5" style="stroke:#181818;stroke-width:0.5;" width="120.2236" x="379.8462" y="50"/><text fill="#000000" font-family="sans-serif" font-size="14" lengthAdjust="spacing" textLength="106.2236" x="386.8462" y="69.9951">Fallback Action</text></g><g class="participant participant-tail" data-participant="FallbackAction"><rect fill="#E2E2F0" height="30.2969" rx="2.5" ry="2.5" style="stroke:#181818;stroke-width:0.5;" width="120.2236" x="379.8462" y="216.8281"/><text fill="#000000" font-family="sans-serif" font-size="14" lengthAdjust="spacing" textLength="106.2236" x="386.8462" y="236.8232">Fallback Action</text></g><g class="participant participant-head" data-participant="Result"><rect fill="#E2E2F0" height="30.2969" rx="2.5" ry="2.5" style="stroke:#181818;stroke-width:0.5;" width="190.4082" x="510.0698" y="50"/><text fill="#000000" font-family="sans-serif" font-size="14" lengthAdjust="spacing" textLength="176.4082" x="517.0698" y="69.9951">Result&lt;Copyable, Error&gt;</text></g><g class="participant participant-tail" data-participant="Result"><rect fill="#E2E2F0" height="30.2969" rx="2.5" ry="2.5" style="stroke:#181818;stroke-width:0.5;" width="190.4082" x="510.0698" y="216.8281"/><text fill="#000000" font-family="sans-serif" font-size="14" lengthAdjust="spacing" textLength="176.4082" x="517.0698" y="236.8232">Result&lt;Copyable, Error&gt;</text></g><g class="message" data-participant-1="User" data-participant-2="ButtonAction"><polygon fill="#181818" points="126.8472,108.4297,136.8472,112.4297,126.8472,116.4297,130.8472,112.4297" style="stroke:#181818;stroke-width:1;"/><line style="stroke:#181818;stroke-width:1;" x1="23.9551" x2="132.8472" y1="112.4297" y2="112.4297"/><text fill="#000000" font-family="sans-serif" font-size="13" lengthAdjust="spacing" textLength="90.8921" x="30.9551" y="107.3638">Trigger action</text></g><g class="message" data-participant-1="ButtonAction" data-participant-2="FallbackMechanism"><polygon fill="#181818" points="279.3081,137.5625,289.3081,141.5625,279.3081,145.5625,283.3081,141.5625" style="stroke:#181818;stroke-width:1;"/><line style="stroke:#181818;stroke-width:1;" x1="138.8472" x2="285.3081" y1="141.5625" y2="141.5625"/><text fill="#000000" font-family="sans-serif" font-size="13" lengthAdjust="spacing" textLength="125.2837" x="145.8472" y="136.4966">Primary action fails</text></g><g class="message" data-participant-1="FallbackMechanism" data-participant-2="FallbackAction"><polygon fill="#181818" points="427.958,166.6953,437.958,170.6953,427.958,174.6953,431.958,170.6953" style="stroke:#181818;stroke-width:1;"/><line style="stroke:#181818;stroke-width:1;" x1="291.3081" x2="433.958" y1="170.6953" y2="170.6953"/><text fill="#000000" font-family="sans-serif" font-size="13" lengthAdjust="spacing" textLength="107.1802" x="298.3081" y="165.6294">Execute fallback</text></g><g class="message" data-participant-1="FallbackAction" data-participant-2="Result"><polygon fill="#181818" points="593.2739,195.8281,603.2739,199.8281,593.2739,203.8281,597.2739,199.8281" style="stroke:#181818;stroke-width:1;"/><line style="stroke:#181818;stroke-width:1;" x1="439.958" x2="599.2739" y1="199.8281" y2="199.8281"/><text fill="#000000" font-family="sans-serif" font-size="13" lengthAdjust="spacing" textLength="118.1426" x="446.958" y="194.7622">Success or Failure</text></g><!--SRC=[RP5D3e8m48NtFSM4jNe0OaZyWHs9KJp0q1HiB9HCsqHkBtzDYhZilFVrlMcHMqtmD89OXsGbbnss5g9hVdRMwlR4hTHj16WW7FoQv-cXGgLAvEz2JqIs77F1NzXAqwmnBqCGucV_Okx2E6MF5ztrM2gnWvH8Kp9niyROk0diarNP60gITJq8EDyQYgDvqpE66ya6gLy8g50gmpQ-4FPPwKTmPmNujs1hmuZCPMDuECw5CJ3yG3O4E19V]--></g></svg>