<svg xmlns="http://www.w3.org/2000/svg" xmlns:xlink="http://www.w3.org/1999/xlink" contentStyleType="text/css" data-diagram-type="SEQUENCE" height="474px" preserveAspectRatio="none" style="width:558px;height:474px;background:#FFFFFF;" version="1.1" viewBox="0 0 558 474" width="558px" zoomAndPan="magnify"><defs/><g><rect fill="none" height="190.7969" style="stroke:#000000;stroke-width:1.5;" width="359.709" x="192.77" y="185.6953"/><rect fill="none" height="88.3984" style="stroke:#000000;stroke-width:1.5;" width="339.709" x="202.77" y="281.0938"/><g><title>User</title><rect fill="#000000" fill-opacity="0.00000" height="312.1953" width="8" x="19.9551" y="81.2969"/><line style="stroke:#181818;stroke-width:0.5;stroke-dasharray:5.0,5.0;" x1="23" x2="23" y1="81.2969" y2="393.4922"/></g><g><title>DMButtonAction</title><rect fill="#000000" fill-opacity="0.00000" height="312.1953" width="8" x="134.8472" y="81.2969"/><line style="stroke:#181818;stroke-width:0.5;stroke-dasharray:5.0,5.0;" x1="137.9243" x2="137.9243" y1="81.2969" y2="393.4922"/></g><g><title>DMAction.retry</title><rect fill="#000000" fill-opacity="0.00000" height="312.1953" width="8" x="268.4204" y="81.2969"/><line style="stroke:#181818;stroke-width:0.5;stroke-dasharray:5.0,5.0;" x1="271.77" x2="271.77" y1="81.2969" y2="393.4922"/></g><g><title>Result&lt;Copyable, Error&gt;</title><rect fill="#000000" fill-opacity="0.00000" height="312.1953" width="8" x="433.2749" y="81.2969"/><line style="stroke:#181818;stroke-width:0.5;stroke-dasharray:5.0,5.0;" x1="437.0708" x2="437.0708" y1="81.2969" y2="393.4922"/></g><g class="participant participant-head" data-participant="User"><text fill="#000000" font-family="sans-serif" font-size="14" lengthAdjust="spacing" textLength="31.9102" x="5" y="77.9951">User</text><ellipse cx="23.9551" cy="13.5" fill="#E2E2F0" rx="8" ry="8" style="stroke:#181818;stroke-width:0.5;"/><path d="M23.9551,21.5 L23.9551,48.5 M10.9551,29.5 L36.9551,29.5 M23.9551,48.5 L10.9551,63.5 M23.9551,48.5 L36.9551,63.5 " fill="none" style="stroke:#181818;stroke-width:0.5;"/></g><g class="participant participant-tail" data-participant="User"><text fill="#000000" font-family="sans-serif" font-size="14" lengthAdjust="spacing" textLength="31.9102" x="5" y="405.4873">User</text><ellipse cx="23.9551" cy="417.2891" fill="#E2E2F0" rx="8" ry="8" style="stroke:#181818;stroke-width:0.5;"/><path d="M23.9551,425.2891 L23.9551,452.2891 M10.9551,433.2891 L36.9551,433.2891 M23.9551,452.2891 L10.9551,467.2891 M23.9551,452.2891 L36.9551,467.2891 " fill="none" style="stroke:#181818;stroke-width:0.5;"/></g><g class="participant participant-head" data-participant="ButtonAction"><rect fill="#E2E2F0" height="30.2969" rx="2.5" ry="2.5" style="stroke:#181818;stroke-width:0.5;" width="127.8457" x="74.9243" y="50"/><text fill="#000000" font-family="sans-serif" font-size="14" lengthAdjust="spacing" textLength="113.8457" x="81.9243" y="69.9951">DMButtonAction</text></g><g class="participant participant-tail" data-participant="ButtonAction"><rect fill="#E2E2F0" height="30.2969" rx="2.5" ry="2.5" style="stroke:#181818;stroke-width:0.5;" width="127.8457" x="74.9243" y="392.4922"/><text fill="#000000" font-family="sans-serif" font-size="14" lengthAdjust="spacing" textLength="113.8457" x="81.9243" y="412.4873">DMButtonAction</text></g><g class="participant participant-head" data-participant="RetryMechanism"><rect fill="#E2E2F0" height="30.2969" rx="2.5" ry="2.5" style="stroke:#181818;stroke-width:0.5;" width="119.3008" x="212.77" y="50"/><text fill="#000000" font-family="sans-serif" font-size="14" lengthAdjust="spacing" textLength="105.3008" x="219.77" y="69.9951">DMAction.retry</text></g><g class="participant participant-tail" data-participant="RetryMechanism"><rect fill="#E2E2F0" height="30.2969" rx="2.5" ry="2.5" style="stroke:#181818;stroke-width:0.5;" width="119.3008" x="212.77" y="392.4922"/><text fill="#000000" font-family="sans-serif" font-size="14" lengthAdjust="spacing" textLength="105.3008" x="219.77" y="412.4873">DMAction.retry</text></g><g class="participant participant-head" data-participant="Result"><rect fill="#E2E2F0" height="30.2969" rx="2.5" ry="2.5" style="stroke:#181818;stroke-width:0.5;" width="190.4082" x="342.0708" y="50"/><text fill="#000000" font-family="sans-serif" font-size="14" lengthAdjust="spacing" textLength="176.4082" x="349.0708" y="69.9951">Result&lt;Copyable, Error&gt;</text></g><g class="participant participant-tail" data-participant="Result"><rect fill="#E2E2F0" height="30.2969" rx="2.5" ry="2.5" style="stroke:#181818;stroke-width:0.5;" width="190.4082" x="342.0708" y="392.4922"/><text fill="#000000" font-family="sans-serif" font-size="14" lengthAdjust="spacing" textLength="176.4082" x="349.0708" y="412.4873">Result&lt;Copyable, Error&gt;</text></g><g class="message" data-participant-1="User" data-participant-2="ButtonAction"><polygon fill="#181818" points="126.8472,108.4297,136.8472,112.4297,126.8472,116.4297,130.8472,112.4297" style="stroke:#181818;stroke-width:1;"/><line style="stroke:#181818;stroke-width:1;" x1="23.9551" x2="132.8472" y1="112.4297" y2="112.4297"/><text fill="#000000" font-family="sans-serif" font-size="13" lengthAdjust="spacing" textLength="90.8921" x="30.9551" y="107.3638">Trigger action</text></g><g class="message" data-participant-1="ButtonAction" data-participant-2="RetryMechanism"><polygon fill="#181818" points="260.4204,137.5625,270.4204,141.5625,260.4204,145.5625,264.4204,141.5625" style="stroke:#181818;stroke-width:1;"/><line style="stroke:#181818;stroke-width:1;" x1="138.8472" x2="266.4204" y1="141.5625" y2="141.5625"/><text fill="#000000" font-family="sans-serif" font-size="13" lengthAdjust="spacing" textLength="65.5015" x="145.8472" y="136.4966">Attempt 1</text></g><g class="message" data-participant-1="RetryMechanism" data-participant-2="Result"><polygon fill="#181818" points="425.2749,166.6953,435.2749,170.6953,425.2749,174.6953,429.2749,170.6953" style="stroke:#181818;stroke-width:1;"/><line style="stroke:#181818;stroke-width:1;" x1="272.4204" x2="431.2749" y1="170.6953" y2="170.6953"/><text fill="#000000" font-family="sans-serif" font-size="13" lengthAdjust="spacing" textLength="118.1426" x="279.4204" y="165.6294">Success or Failure</text></g><path d="M192.77,185.6953 L257.2129,185.6953 L257.2129,192.8281 L247.2129,202.8281 L192.77,202.8281 L192.77,185.6953 " fill="#EEEEEE" style="stroke:#000000;stroke-width:1.5;"/><rect fill="none" height="190.7969" style="stroke:#000000;stroke-width:1.5;" width="359.709" x="192.77" y="185.6953"/><text fill="#000000" font-family="sans-serif" font-size="13" font-weight="bold" lengthAdjust="spacing" textLength="19.4429" x="207.77" y="198.7622">alt</text><text fill="#000000" font-family="sans-serif" font-size="11" font-weight="bold" lengthAdjust="spacing" textLength="53.249" x="272.2129" y="197.9058">[Failure]</text><g class="message" data-participant-1="RetryMechanism" data-participant-2="RetryMechanism"><line style="stroke:#181818;stroke-width:1;" x1="272.4204" x2="314.4204" y1="223.9609" y2="223.9609"/><line style="stroke:#181818;stroke-width:1;" x1="314.4204" x2="314.4204" y1="223.9609" y2="236.9609"/><line style="stroke:#181818;stroke-width:1;" x1="273.4204" x2="314.4204" y1="236.9609" y2="236.9609"/><polygon fill="#181818" points="283.4204,232.9609,273.4204,236.9609,283.4204,240.9609,279.4204,236.9609" style="stroke:#181818;stroke-width:1;"/><text fill="#000000" font-family="sans-serif" font-size="13" lengthAdjust="spacing" textLength="114.9434" x="279.4204" y="218.895">Retry (Attempt 2)</text></g><g class="message" data-participant-1="RetryMechanism" data-participant-2="Result"><polygon fill="#181818" points="425.2749,262.0938,435.2749,266.0938,425.2749,270.0938,429.2749,266.0938" style="stroke:#181818;stroke-width:1;"/><line style="stroke:#181818;stroke-width:1;" x1="272.4204" x2="431.2749" y1="266.0938" y2="266.0938"/><text fill="#000000" font-family="sans-serif" font-size="13" lengthAdjust="spacing" textLength="118.1426" x="279.4204" y="261.0278">Success or Failure</text></g><path d="M202.77,281.0938 L267.2129,281.0938 L267.2129,288.2266 L257.2129,298.2266 L202.77,298.2266 L202.77,281.0938 " fill="#EEEEEE" style="stroke:#000000;stroke-width:1.5;"/><rect fill="none" height="88.3984" style="stroke:#000000;stroke-width:1.5;" width="339.709" x="202.77" y="281.0938"/><text fill="#000000" font-family="sans-serif" font-size="13" font-weight="bold" lengthAdjust="spacing" textLength="19.4429" x="217.77" y="294.1606">alt</text><text fill="#000000" font-family="sans-serif" font-size="11" font-weight="bold" lengthAdjust="spacing" textLength="53.249" x="282.2129" y="293.3042">[Failure]</text><g class="message" data-participant-1="RetryMechanism" data-participant-2="RetryMechanism"><line style="stroke:#181818;stroke-width:1;" x1="272.4204" x2="314.4204" y1="319.3594" y2="319.3594"/><line style="stroke:#181818;stroke-width:1;" x1="314.4204" x2="314.4204" y1="319.3594" y2="332.3594"/><line style="stroke:#181818;stroke-width:1;" x1="273.4204" x2="314.4204" y1="332.3594" y2="332.3594"/><polygon fill="#181818" points="283.4204,328.3594,273.4204,332.3594,283.4204,336.3594,279.4204,332.3594" style="stroke:#181818;stroke-width:1;"/><text fill="#000000" font-family="sans-serif" font-size="13" lengthAdjust="spacing" textLength="114.9434" x="279.4204" y="314.2935">Retry (Attempt 3)</text></g><g class="message" data-participant-1="RetryMechanism" data-participant-2="Result"><polygon fill="#181818" points="425.2749,357.4922,435.2749,361.4922,425.2749,365.4922,429.2749,361.4922" style="stroke:#181818;stroke-width:1;"/><line style="stroke:#181818;stroke-width:1;" x1="272.4204" x2="431.2749" y1="361.4922" y2="361.4922"/><text fill="#000000" font-family="sans-serif" font-size="13" lengthAdjust="spacing" textLength="75.791" x="279.4204" y="356.4263">Final Result</text></g><!--SRC=[dP3B2W8n34Nt_OhWoW4LrDqWWi-T6nyV46lGGgSTqip2ltSwes95NLWe9BdtSa9GYsSu169L8elHfaGdq5bkvfM8TpCjnhiEO83NmRkvdGwOXA-DUHkh3UaBEXEArBwbK5cPB7nvnQEb7goOFK_lkQWf5JU2_ZI1vh1dSpxN0hPBl8hHd49pc8bGKGeCLQgqtWZAOLTfJI50VOKr6binARJohA5-dy8fgEcX- -2Dig-vhz0OU0V_1HzdFxFj0clZq3wE7QtaJgh-Dm00]--></g></svg>