<svg xmlns="http://www.w3.org/2000/svg" xmlns:xlink="http://www.w3.org/1999/xlink" contentStyleType="text/css" data-diagram-type="CLASS" height="301px" preserveAspectRatio="none" style="width:1015px;height:301px;background:#F9F9F9;" version="1.1" viewBox="0 0 1015 301" width="1015px" zoomAndPan="magnify"><defs/><g><rect fill="#F9F9F9" height="301" style="stroke:#FFFFFF00;stroke-width:1;" width="1015" x="0" y="0"/><!--class DMAction--><g id="elem_DMAction"><rect codeLine="3" fill="#F1F1F1" height="113.1875" id="DMAction" rx="3.5" ry="3.5" style="stroke:#181818;stroke-width:0.5;" width="192.9951" x="7" y="180.89"/><ellipse cx="65.772" cy="196.89" fill="#B4A7E5" rx="11" ry="11" style="stroke:#181818;stroke-width:1;"/><path d="M61.6938,192.6556 L61.6938,190.4994 L69.0845,190.4994 L69.0845,192.6556 L66.6157,192.6556 L66.6157,200.7338 L69.0845,200.7338 L69.0845,202.89 L61.6938,202.89 L61.6938,200.7338 L64.1626,200.7338 L64.1626,192.6556 L61.6938,192.6556 Z " fill="#000000"/><text fill="#000000" font-family="sans-serif" font-size="14" font-style="italic" lengthAdjust="spacing" textLength="66.9512" x="86.272" y="201.7367">DMAction</text><line style="stroke:#181818;stroke-width:0.5;" x1="8" x2="198.9951" y1="212.89" y2="212.89"/><ellipse cx="18" cy="226.5384" fill="#FFFFFF" fill-opacity="0.00000" rx="3" ry="3" style="stroke:#038048;stroke-width:1;"/><text fill="#000000" font-family="sans-serif" font-size="14" lengthAdjust="spacing" textLength="146.1455" x="27" y="229.8851">currentAttempt: UInt</text><ellipse cx="18" cy="242.8353" fill="#FFFFFF" fill-opacity="0.00000" rx="3" ry="3" style="stroke:#038048;stroke-width:1;"/><text fill="#000000" font-family="sans-serif" font-size="14" lengthAdjust="spacing" textLength="57.3467" x="27" y="246.182">id: UUID</text><ellipse cx="18" cy="259.1322" fill="#FFFFFF" fill-opacity="0.00000" rx="3" ry="3" style="stroke:#038048;stroke-width:1;"/><text fill="#000000" font-family="sans-serif" font-size="14" lengthAdjust="spacing" textLength="130.6895" x="27" y="262.4789">action: ActionType</text><line style="stroke:#181818;stroke-width:0.5;" x1="8" x2="198.9951" y1="269.7806" y2="269.7806"/><ellipse cx="18" cy="283.4291" fill="#84BE84" rx="3" ry="3" style="stroke:#038048;stroke-width:1;"/><text fill="#000000" font-family="sans-serif" font-size="14" lengthAdjust="spacing" textLength="166.9951" x="27" y="286.7757">simpleAction: () -&gt; Void</text></g><!--class DMActionResultValueProtocol--><g id="elem_DMActionResultValueProtocol"><rect codeLine="10" fill="#F1F1F1" height="72.5625" id="DMActionResultValueProtocol" rx="3.5" ry="3.5" style="stroke:#181818;stroke-width:0.5;" width="239.3408" x="636.83" y="201.2"/><ellipse cx="651.83" cy="221.3328" fill="#B4A7E5" rx="11" ry="11" style="stroke:#181818;stroke-width:1;"/><path d="M647.7519,217.0984 L647.7519,214.9422 L655.1425,214.9422 L655.1425,217.0984 L652.6738,217.0984 L652.6738,225.1766 L655.1425,225.1766 L655.1425,227.3328 L647.7519,227.3328 L647.7519,225.1766 L650.2206,225.1766 L650.2206,217.0984 L647.7519,217.0984 Z " fill="#000000"/><text fill="#000000" font-family="sans-serif" font-size="12" font-style="italic" lengthAdjust="spacing" textLength="70.8105" x="734.0951" y="217.3387">&#171;Copyable&#187;</text><text fill="#000000" font-family="sans-serif" font-size="14" font-style="italic" lengthAdjust="spacing" textLength="207.3408" x="665.83" y="233.1639">DMActionResultValueProtocol</text><line style="stroke:#181818;stroke-width:0.5;" x1="637.83" x2="875.1708" y1="241.4656" y2="241.4656"/><ellipse cx="647.83" cy="255.1141" fill="#FFFFFF" fill-opacity="0.00000" rx="3" ry="3" style="stroke:#038048;stroke-width:1;"/><text fill="#000000" font-family="sans-serif" font-size="14" lengthAdjust="spacing" textLength="143.0967" x="656.83" y="258.4607">attemptCount: UInt?</text><line style="stroke:#181818;stroke-width:0.5;" x1="637.83" x2="875.1708" y1="265.7625" y2="265.7625"/></g><!--class DMActionResultValue--><g id="elem_DMActionResultValue"><rect codeLine="15" fill="#F1F1F1" height="80.5938" id="DMActionResultValue" rx="3.5" ry="3.5" style="stroke:#181818;stroke-width:0.5;" width="182.3701" x="767.31" y="15.15"/><ellipse cx="782.31" cy="31.15" fill="#ADD1B2" rx="11" ry="11" style="stroke:#181818;stroke-width:1;"/><path d="M785.2788,36.7906 Q784.7006,37.0875 784.06,37.2281 Q783.4194,37.3844 782.7163,37.3844 Q780.2163,37.3844 778.8881,35.7437 Q777.5756,34.0875 777.5756,30.9625 Q777.5756,27.8375 778.8881,26.1812 Q780.2163,24.525 782.7163,24.525 Q783.4194,24.525 784.06,24.6812 Q784.7163,24.8375 785.2788,25.1344 L785.2788,27.8531 Q784.6538,27.275 784.06,27.0094 Q783.4663,26.7281 782.8413,26.7281 Q781.4975,26.7281 780.81,27.8062 Q780.1225,28.8687 780.1225,30.9625 Q780.1225,33.0562 780.81,34.1344 Q781.4975,35.1969 782.8413,35.1969 Q783.4663,35.1969 784.06,34.9312 Q784.6538,34.65 785.2788,34.0719 L785.2788,36.7906 Z " fill="#000000"/><text fill="#000000" font-family="sans-serif" font-size="14" lengthAdjust="spacing" textLength="150.3701" x="796.31" y="35.9967">DMActionResultValue</text><line style="stroke:#181818;stroke-width:0.5;" x1="768.31" x2="948.6801" y1="47.15" y2="47.15"/><ellipse cx="778.31" cy="60.7984" fill="#FFFFFF" fill-opacity="0.00000" rx="3" ry="3" style="stroke:#038048;stroke-width:1;"/><text fill="#000000" font-family="sans-serif" font-size="14" lengthAdjust="spacing" textLength="143.0967" x="787.31" y="64.1451">attemptCount: UInt?</text><ellipse cx="778.31" cy="77.0953" fill="#FFFFFF" fill-opacity="0.00000" rx="3" ry="3" style="stroke:#038048;stroke-width:1;"/><text fill="#000000" font-family="sans-serif" font-size="14" lengthAdjust="spacing" textLength="112.8887" x="787.31" y="80.442">value: Copyable</text><line style="stroke:#181818;stroke-width:0.5;" x1="768.31" x2="948.6801" y1="87.7437" y2="87.7437"/></g><!--class PlaceholderCopyable--><g id="elem_PlaceholderCopyable"><rect codeLine="20" fill="#F1F1F1" height="56.2656" id="PlaceholderCopyable" rx="3.5" ry="3.5" style="stroke:#181818;stroke-width:0.5;" width="179.2871" x="422.85" y="209.35"/><ellipse cx="437.85" cy="229.4828" fill="#ADD1B2" rx="11" ry="11" style="stroke:#181818;stroke-width:1;"/><path d="M440.8188,235.1234 Q440.2406,235.4203 439.6,235.5609 Q438.9594,235.7172 438.2563,235.7172 Q435.7563,235.7172 434.4281,234.0766 Q433.1156,232.4203 433.1156,229.2953 Q433.1156,226.1703 434.4281,224.5141 Q435.7563,222.8578 438.2563,222.8578 Q438.9594,222.8578 439.6,223.0141 Q440.2563,223.1703 440.8188,223.4672 L440.8188,226.1859 Q440.1938,225.6078 439.6,225.3422 Q439.0063,225.0609 438.3813,225.0609 Q437.0375,225.0609 436.35,226.1391 Q435.6625,227.2016 435.6625,229.2953 Q435.6625,231.3891 436.35,232.4672 Q437.0375,233.5297 438.3813,233.5297 Q439.0063,233.5297 439.6,233.2641 Q440.1938,232.9828 440.8188,232.4047 L440.8188,235.1234 Z " fill="#000000"/><text fill="#000000" font-family="sans-serif" font-size="12" font-style="italic" lengthAdjust="spacing" textLength="70.8105" x="490.0883" y="225.4887">&#171;Copyable&#187;</text><text fill="#000000" font-family="sans-serif" font-size="14" lengthAdjust="spacing" textLength="147.2871" x="451.85" y="241.3139">PlaceholderCopyable</text><line style="stroke:#181818;stroke-width:0.5;" x1="423.85" x2="601.1371" y1="249.6156" y2="249.6156"/><line style="stroke:#181818;stroke-width:0.5;" x1="423.85" x2="601.1371" y1="257.6156" y2="257.6156"/></g><!--class DMActionWithFallback--><g id="elem_DMActionWithFallback"><rect codeLine="22" fill="#F1F1F1" height="96.8906" id="DMActionWithFallback" rx="3.5" ry="3.5" style="stroke:#181818;stroke-width:0.5;" width="188.7275" x="9.13" y="7"/><ellipse cx="24.13" cy="23" fill="#ADD1B2" rx="11" ry="11" style="stroke:#181818;stroke-width:1;"/><path d="M27.0988,28.6406 Q26.5206,28.9375 25.88,29.0781 Q25.2394,29.2344 24.5363,29.2344 Q22.0363,29.2344 20.7081,27.5938 Q19.3956,25.9375 19.3956,22.8125 Q19.3956,19.6875 20.7081,18.0313 Q22.0363,16.375 24.5363,16.375 Q25.2394,16.375 25.88,16.5313 Q26.5363,16.6875 27.0988,16.9844 L27.0988,19.7031 Q26.4738,19.125 25.88,18.8594 Q25.2863,18.5781 24.6613,18.5781 Q23.3175,18.5781 22.63,19.6563 Q21.9425,20.7188 21.9425,22.8125 Q21.9425,24.9063 22.63,25.9844 Q23.3175,27.0469 24.6613,27.0469 Q25.2863,27.0469 25.88,26.7813 Q26.4738,26.5 27.0988,25.9219 L27.0988,28.6406 Z " fill="#000000"/><text fill="#000000" font-family="sans-serif" font-size="14" lengthAdjust="spacing" textLength="156.7275" x="38.13" y="27.8467">DMActionWithFallback</text><line style="stroke:#181818;stroke-width:0.5;" x1="10.13" x2="196.8575" y1="39" y2="39"/><ellipse cx="20.13" cy="52.6484" fill="#FFFFFF" fill-opacity="0.00000" rx="3" ry="3" style="stroke:#038048;stroke-width:1;"/><text fill="#000000" font-family="sans-serif" font-size="14" lengthAdjust="spacing" textLength="146.1455" x="29.13" y="55.9951">currentAttempt: UInt</text><ellipse cx="20.13" cy="68.9453" fill="#FFFFFF" fill-opacity="0.00000" rx="3" ry="3" style="stroke:#038048;stroke-width:1;"/><text fill="#000000" font-family="sans-serif" font-size="14" lengthAdjust="spacing" textLength="57.3467" x="29.13" y="72.292">id: UUID</text><ellipse cx="20.13" cy="85.2422" fill="#FFFFFF" fill-opacity="0.00000" rx="3" ry="3" style="stroke:#038048;stroke-width:1;"/><text fill="#000000" font-family="sans-serif" font-size="14" lengthAdjust="spacing" textLength="130.6895" x="29.13" y="88.5889">action: ActionType</text><line style="stroke:#181818;stroke-width:0.5;" x1="10.13" x2="196.8575" y1="95.8906" y2="95.8906"/></g><!--class DMButtonAction--><g id="elem_DMButtonAction"><rect codeLine="28" fill="#F1F1F1" height="96.8906" id="DMButtonAction" rx="3.5" ry="3.5" style="stroke:#181818;stroke-width:0.5;" width="172.1455" x="329.42" y="7"/><ellipse cx="356.2549" cy="23" fill="#ADD1B2" rx="11" ry="11" style="stroke:#181818;stroke-width:1;"/><path d="M359.2237,28.6406 Q358.6455,28.9375 358.0049,29.0781 Q357.3643,29.2344 356.6612,29.2344 Q354.1612,29.2344 352.833,27.5938 Q351.5205,25.9375 351.5205,22.8125 Q351.5205,19.6875 352.833,18.0313 Q354.1612,16.375 356.6612,16.375 Q357.3643,16.375 358.0049,16.5313 Q358.6612,16.6875 359.2237,16.9844 L359.2237,19.7031 Q358.5987,19.125 358.0049,18.8594 Q357.4112,18.5781 356.7862,18.5781 Q355.4424,18.5781 354.7549,19.6563 Q354.0674,20.7188 354.0674,22.8125 Q354.0674,24.9063 354.7549,25.9844 Q355.4424,27.0469 356.7862,27.0469 Q357.4112,27.0469 358.0049,26.7813 Q358.5987,26.5 359.2237,25.9219 L359.2237,28.6406 Z " fill="#000000"/><text fill="#000000" font-family="sans-serif" font-size="14" lengthAdjust="spacing" textLength="113.8457" x="372.8849" y="27.8467">DMButtonAction</text><line style="stroke:#181818;stroke-width:0.5;" x1="330.42" x2="500.5655" y1="39" y2="39"/><ellipse cx="340.42" cy="52.6484" fill="#FFFFFF" fill-opacity="0.00000" rx="3" ry="3" style="stroke:#038048;stroke-width:1;"/><text fill="#000000" font-family="sans-serif" font-size="14" lengthAdjust="spacing" textLength="146.1455" x="349.42" y="55.9951">currentAttempt: UInt</text><ellipse cx="340.42" cy="68.9453" fill="#FFFFFF" fill-opacity="0.00000" rx="3" ry="3" style="stroke:#038048;stroke-width:1;"/><text fill="#000000" font-family="sans-serif" font-size="14" lengthAdjust="spacing" textLength="57.3467" x="349.42" y="72.292">id: UUID</text><ellipse cx="340.42" cy="85.2422" fill="#FFFFFF" fill-opacity="0.00000" rx="3" ry="3" style="stroke:#038048;stroke-width:1;"/><text fill="#000000" font-family="sans-serif" font-size="14" lengthAdjust="spacing" textLength="130.6895" x="349.42" y="88.5889">action: ActionType</text><line style="stroke:#181818;stroke-width:0.5;" x1="330.42" x2="500.5655" y1="95.8906" y2="95.8906"/></g><!--class Copyable--><g id="elem_Copyable"><rect fill="#F1F1F1" height="48" id="Copyable" rx="3.5" ry="3.5" style="stroke:#181818;stroke-width:0.5;" width="97.4814" x="910.76" y="213.49"/><ellipse cx="925.76" cy="229.49" fill="#ADD1B2" rx="11" ry="11" style="stroke:#181818;stroke-width:1;"/><path d="M928.7288,235.1306 Q928.1506,235.4275 927.51,235.5681 Q926.8694,235.7244 926.1663,235.7244 Q923.6663,235.7244 922.3381,234.0837 Q921.0256,232.4275 921.0256,229.3025 Q921.0256,226.1775 922.3381,224.5212 Q923.6663,222.865 926.1663,222.865 Q926.8694,222.865 927.51,223.0212 Q928.1663,223.1775 928.7288,223.4744 L928.7288,226.1931 Q928.1038,225.615 927.51,225.3494 Q926.9163,225.0681 926.2913,225.0681 Q924.9475,225.0681 924.26,226.1462 Q923.5725,227.2087 923.5725,229.3025 Q923.5725,231.3962 924.26,232.4744 Q924.9475,233.5369 926.2913,233.5369 Q926.9163,233.5369 927.51,233.2712 Q928.1038,232.99 928.7288,232.4119 L928.7288,235.1306 Z " fill="#000000"/><text fill="#000000" font-family="sans-serif" font-size="14" lengthAdjust="spacing" textLength="65.4814" x="939.76" y="234.3367">Copyable</text><line style="stroke:#181818;stroke-width:0.5;" x1="911.76" x2="1007.2414" y1="245.49" y2="245.49"/><line style="stroke:#181818;stroke-width:0.5;" x1="911.76" x2="1007.2414" y1="253.49" y2="253.49"/></g><g id="elem_GMN14"><path d="M235.21,213.29 L235.21,233.49 L200.19,237.49 L235.21,241.49 L235.21,261.6884 A3.5,3.5 0 0 0 238.71,265.1884 L384.2842,265.1884 A3.5,3.5 0 0 0 387.7842,261.6884 L387.7842,219.79 L377.7842,209.79 L238.71,209.79 A3.5,3.5 0 0 0 235.21,213.29 " fill="#E5E5E5" style="stroke:#191919;stroke-width:1.5;"/><path d="M377.7842,209.79 L377.7842,218.04 A1.75,1.75 0 0 0 379.5342,219.79 L387.7842,219.79 L377.7842,209.79 " fill="#E5E5E5" style="stroke:#191919;stroke-width:1.5;"/><text fill="#191919" font-family="sans-serif" font-size="13" lengthAdjust="spacing" textLength="104.1206" x="241.21" y="226.8569">+ fallbackTo(...)</text><text fill="#191919" font-family="sans-serif" font-size="13" lengthAdjust="spacing" textLength="69.0435" x="241.21" y="241.9897">+ retry(...)</text><text fill="#191919" font-family="sans-serif" font-size="13" lengthAdjust="spacing" textLength="131.5742" x="241.21" y="257.1225">+ callAsFunction(...)</text></g><!--link DMActionResultValue to DMActionResultValueProtocol--><g id="link_DMActionResultValue_DMActionResultValueProtocol"><path codeLine="35" d="M836.11,95.96 C818.4,127.22 802.7658,154.8305 785.6258,185.0705 " fill="#FFFFFF" fill-opacity="0.00000" id="DMActionResultValue-to-DMActionResultValueProtocol" style="stroke:#191919;stroke-width:1;stroke-dasharray:7.0,7.0;"/><polygon fill="#FFFFFF" fill-opacity="0.00000" points="776.75,200.73,790.8456,188.0291,780.406,182.1119,776.75,200.73" style="stroke:#191919;stroke-width:1;"/><text fill="#000000" font-family="sans-serif" font-size="13" lengthAdjust="spacing" textLength="76.9082" x="815.5" y="146.9569">implements</text></g><!--link DMActionWithFallback to DMAction--><g id="link_DMActionWithFallback_DMAction"><path codeLine="36" d="M103.5,104.22 C103.5,127.66 103.5,138.04 103.5,162.5 " fill="#FFFFFF" fill-opacity="0.00000" id="DMActionWithFallback-to-DMAction" style="stroke:#191919;stroke-width:1;stroke-dasharray:7.0,7.0;"/><polygon fill="#FFFFFF" fill-opacity="0.00000" points="103.5,180.5,109.5,162.5,97.5,162.5,103.5,180.5" style="stroke:#191919;stroke-width:1;"/><text fill="#000000" font-family="sans-serif" font-size="13" lengthAdjust="spacing" textLength="76.9082" x="104.5" y="146.9569">implements</text></g><!--link DMButtonAction to DMAction--><g id="link_DMButtonAction_DMAction"><path codeLine="37" d="M332.71,104.22 C292,127.71 258.2805,147.1735 215.8405,171.6635 " fill="#FFFFFF" fill-opacity="0.00000" id="DMButtonAction-to-DMAction" style="stroke:#191919;stroke-width:1;stroke-dasharray:7.0,7.0;"/><polygon fill="#FFFFFF" fill-opacity="0.00000" points="200.25,180.66,218.8393,176.8603,212.8417,166.4667,200.25,180.66" style="stroke:#191919;stroke-width:1;"/><text fill="#000000" font-family="sans-serif" font-size="13" lengthAdjust="spacing" textLength="76.9082" x="279.5" y="146.9569">implements</text></g><!--link DMActionResultValue to Copyable--><g id="link_DMActionResultValue_Copyable"><path codeLine="38" d="M880.66,95.96 C900.75,131.77 926.7531,178.1279 943.4131,207.8079 " fill="#FFFFFF" fill-opacity="0.00000" id="DMActionResultValue-to-Copyable" style="stroke:#191919;stroke-width:1;"/><polygon fill="#191919" points="946.35,213.04,945.4327,203.2339,943.9026,208.6799,938.4566,207.1498,946.35,213.04" style="stroke:#191919;stroke-width:1;"/><text fill="#000000" font-family="sans-serif" font-size="13" lengthAdjust="spacing" textLength="38.9683" x="910.5" y="146.9569">wraps</text></g><!--link DMButtonAction to PlaceholderCopyable--><g id="link_DMButtonAction_PlaceholderCopyable"><path codeLine="39" d="M441.24,104.22 C459.25,137.66 479.8438,175.878 494.8238,203.678 " fill="#FFFFFF" fill-opacity="0.00000" id="DMButtonAction-to-PlaceholderCopyable" style="stroke:#191919;stroke-width:1;"/><polygon fill="#191919" points="497.67,208.96,496.922,199.1396,495.2982,204.5584,489.8794,202.9345,497.67,208.96" style="stroke:#191919;stroke-width:1;"/><text fill="#000000" font-family="sans-serif" font-size="13" lengthAdjust="spacing" textLength="29.7832" x="465.5" y="146.9569">uses</text></g><!--SRC=[hLBBJiCm4BpdAvOJhL3p0L4L55egzO1KbRQSJR8X5euTsMkW0lwTE7527r5FzSqxuzdPMTzGWIL2oRG9Rc6EEPS8Awr8fKgOW4j2dRCKOVwKfCILXEy0wdC7gTKQ9IL4M5OKmNOfoKCygw_RvTnVMVCmWbPWiw_G0uQNbS34mwCnJ6BOAPu5ly50vpKQAsZ7XCNE84odCrNjsQl0EEwTiTRIJ5dfVTqxnNwyPz8s9HEaWXap97zHgKK-72-2hhlJR-LMelPSA96Xxi0Jbpsrw_p2gLWm8LvP-dwTU0zQF5WY9Q-vkoRADGhcAgRWbGc6CWp3d_ZYxY9erb_MHluLZh8uaZZb7mrsaNdkRL9_j7ux4NngLfr9EixGCYEm1etBuF6BK1eNGY0L8MZ-LX2el3VYCypzF1ir2iDmxAiQIUyF2sbDIyp2okPjYw3Cm6d_0G00]--></g></svg>